<svg width="64" height="64" viewBox="0 0 64 64" fill="none" xmlns="http://www.w3.org/2000/svg">
<rect width="64" height="64" rx="32" fill="#E1F9F1"/>
<path fill-rule="evenodd" clip-rule="evenodd" d="M32 21.3333C26.109 21.3333 21.3333 26.109 21.3333 32C21.3333 37.891 26.109 42.6667 32 42.6667C37.891 42.6667 42.6667 37.891 42.6667 32C42.6667 26.109 37.891 21.3333 32 21.3333ZM18.6667 32C18.6667 24.6362 24.6362 18.6667 32 18.6667C39.3638 18.6667 45.3333 24.6362 45.3333 32C45.3333 39.3638 39.3638 45.3333 32 45.3333C24.6362 45.3333 18.6667 39.3638 18.6667 32ZM36.9428 28.3905C37.4635 28.9112 37.4635 29.7554 36.9428 30.2761L31.6095 35.6095C31.0888 36.1302 30.2446 36.1302 29.7239 35.6095L27.0572 32.9428C26.5365 32.4221 26.5365 31.5779 27.0572 31.0572C27.5779 30.5365 28.4221 30.5365 28.9428 31.0572L30.6667 32.781L35.0572 28.3905C35.5779 27.8698 36.4221 27.8698 36.9428 28.3905Z" fill="#14664B"/>
</svg>
